# xmcd
#
# Track frame offsets:
#	150
#	15832
#	36250
#	46207
#	60122
#	74255
#	87872
#	104087
#	117475
#	130155
#	144152
#	153707
#	169147
#	179845
#	192162
#	205300
#	218500
#	230382
#	241907
#	262310
#
# Disc length: 3701 seconds
#
# Revision: 1
# Processed by: cddbd v1.5.2PL0 Copyright (c) Steve Scherf et al.
# Submitted via: EZCDAudioConverter 7.1.2.1
#
DISCID=1c0e7314
DTITLE=Various Artist - Blues CD1
DYEAR=2001
DGENRE=Blues
TTITLE0=Screaming Jay Hawkins - I put a spell on you
TTITLE1=BB King - The thrill is gone
TTITLE2=John Lee Hooker - Dimples
TTITLE3=Memphis Slim - Messing around
TTITLE4=Albert King - Born under a bad sign
TTITLE5=Lighting Hopkins - Mojo Hand
TTITLE6=Muddy Waters - Mannish boy
TTITLE7=T Bone Walker - T Bone shuffle
TTITLE8=Otis Rush - Three times a fool
TTITLE9=Pee-Wee Crayton - The telephone is ringing
TTITLE10=Willie Johnson - So long baby good bye
TTITLE11=Georges Baze - Little red rooster
TTITLE12=Champion Jack Dupree - Shake baby shake
TTITLE13=Elmore James - Dust my broom
TTITLE14=Homesick James - My baby's sweet
TTITLE15=Howling Wolf - Everybody's in the mood
TTITLE16=Jimmy Reed - Honest I do
TTITLE17=Johnny Williams - Fat mouth
TTITLE18=Junior Wells&Buddy Guys - So tired
TTITLE19=Big Joe Williams&Sonny Boy Williamson - Baby please don't go
EXTD=
EXTT0=
EXTT1=
EXTT2=
EXTT3=
EXTT4=
EXTT5=
EXTT6=
EXTT7=
EXTT8=
EXTT9=
EXTT10=
EXTT11=
EXTT12=
EXTT13=
EXTT14=
EXTT15=
EXTT16=
EXTT17=
EXTT18=
EXTT19=
PLAYORDER=
